<mxfile host="app.diagrams.net" modified="2024-02-14T13:37:16.674Z" agent="Mozilla/5.0 (Windows NT 10.0; Win64; x64) AppleWebKit/537.36 (KHTML, like Gecko) Chrome/121.0.0.0 Safari/537.36 Edg/121.0.0.0" etag="Z0Csmb277xdiyEZpvXJE" version="23.1.3" type="device">
  <diagram name="Page-1" id="Bw0Euteh4pc029msF3c_">
    <mxGraphModel dx="1193" dy="752" grid="1" gridSize="10" guides="1" tooltips="1" connect="1" arrows="1" fold="1" page="1" pageScale="1" pageWidth="850" pageHeight="1100" math="0" shadow="0">
      <root>
        <mxCell id="0" />
        <mxCell id="1" parent="0" />
        <mxCell id="0-lWzW5RpEPmX99tTFJL-2" value="&lt;b&gt;Infini-Connect&lt;/b&gt;" style="whiteSpace=wrap;html=1;fontFamily=Architects Daughter;rounded=0;hachureGap=4;fontSource=https%3A%2F%2Ffonts.googleapis.com%2Fcss%3Ffamily%3DArchitects%2BDaughter;align=left;labelPosition=center;verticalLabelPosition=middle;verticalAlign=top;glass=0;shadow=1;fillColor=#fff2cc;strokeColor=#d6b656;" vertex="1" parent="1">
          <mxGeometry x="230" y="160" width="280" height="270" as="geometry" />
        </mxCell>
        <mxCell id="0-lWzW5RpEPmX99tTFJL-4" value="&lt;b&gt;Plugin&lt;/b&gt;" style="whiteSpace=wrap;html=1;fontFamily=Architects Daughter;rounded=1;sketch=1;hachureGap=4;jiggle=2;curveFitting=1;fontSource=https%3A%2F%2Ffonts.googleapis.com%2Fcss%3Ffamily%3DArchitects%2BDaughter;fillColor=#fad9d5;strokeColor=#ae4132;" vertex="1" parent="1">
          <mxGeometry x="320" y="70" width="120" height="60" as="geometry" />
        </mxCell>
        <mxCell id="0-lWzW5RpEPmX99tTFJL-6" value="&lt;b&gt;GPT 4&lt;/b&gt;" style="whiteSpace=wrap;html=1;fontFamily=Architects Daughter;rounded=1;sketch=1;hachureGap=4;jiggle=2;curveFitting=1;fontSource=https%3A%2F%2Ffonts.googleapis.com%2Fcss%3Ffamily%3DArchitects%2BDaughter;fillColor=#b1ddf0;strokeColor=#10739e;" vertex="1" parent="1">
          <mxGeometry x="560" y="360" width="120" height="60" as="geometry" />
        </mxCell>
        <mxCell id="0-lWzW5RpEPmX99tTFJL-8" value="&lt;b&gt;GPT 3.5&lt;/b&gt;" style="whiteSpace=wrap;html=1;fontFamily=Architects Daughter;rounded=1;sketch=1;hachureGap=4;jiggle=2;curveFitting=1;fontSource=https%3A%2F%2Ffonts.googleapis.com%2Fcss%3Ffamily%3DArchitects%2BDaughter;fillColor=#d0cee2;strokeColor=default;gradientColor=none;strokeWidth=1;" vertex="1" parent="1">
          <mxGeometry x="560" y="240" width="120" height="60" as="geometry" />
        </mxCell>
        <mxCell id="0-lWzW5RpEPmX99tTFJL-20" value="" style="shape=stencil(lZtJkhw3EkVPU1sY5mHNVt9DZqLEsmaTMopqSbeXw0oIZnxkvGjuqjL9RwDw6bvD8yW9++3Dj7++f4n+t69fPv/n/R+vP3398JL+9RLj66cP77+8frW/XtIPL+ndz5+/vP/ly+ffP/309v+vP07J+dd/P/9vPuHPN5x30U9Q9H+9fVBdePvg32/iH18/ncRHOYkXl9K1eHBpnMSz6/D04HoU8QTi0cV8Ek+uDRKvVcRTuBZPzp+3Gl1vJF6HiId+LZ7Xu5d4cBUOsjhfRTwUEi9nrZreYO3V+S7ivZJ4ayJO595c0ac32Gp3JYp4hbUPV7KKk4kdX3+TL3CSwfQSVB6sJkRX9HAyLD8kl3W7mTwqu5BEPsHhm3zT/aLHFhd0PRFsweTF7j1aZqgu6vo9Pb85v8nT+bfd9G/kh64f5bvLas038hIxTZ7sc2jINPmI8pszejj/qX5dP9nDDAXn9QTnKcgGdd/oGsTBGfPPz09uUMyPKyV8y0AB/Gu+/rye6jKdT1L/aq6xfDnLD9Svyet5moOBAVmmCAIILoJFGEDircWkTiq2pCyA7DLpuLh4tjnzajyksmLmAejo9QZoku8Ght2Zws5qmHZKb6iagCc/oD1UPVY7t3/4xxWgC4GwXRHAQt35WO2TQIprLsqSLDrRptv6+gAM9rbm6tl7klE63kM7Lynd+L/F37PiklEj0kPXU0oFyY0BouyhsR66S0IUzfjoWLuadw6YlA1Qz3vICdmiAfr5lHLmTR9R6ADU5VJXgCBL6ryHoadU/KKRV4AitYNxKwY0AaRFHq4A47yHknHTySsZKXXt6gog2a30FXiuAP1MT8tYCek5IKgeanAZXDRtCbdGN/gN/ay4yh5nHhzP5l0P0ncFkFBZqxugaQMISaodWWRKa8UHYGBSNEA/76H5lVefA/I69QMQkAhbFFLiEF2m+rKqi7a0aofngKYVacuL/D0HWOQTQGE9DCUzjTNQ9upxzaIG6CHHVQ0dgIFcwwKj8PPul3U9B5T1vAMQGGC2efaHHlEPMzCej7Un5JR5KAftGa3VAmPwChhgS8WO9RxmesGy0yKp5GkDDEiKxcxb3mChkt5QlToYoNOmu7aiekOCZZFUApkBKC5ZJJXavHdMuzVpMWYAYjMWGNU0BuqhNlXc4Lhkca5ugAFxycKWsPsRMAO1rBXWiMi9W9UcN7iz1oYGgWFFDgDMIX1WQAePM3fRqqxgmJm2edb0qFg/mF4lGBuggLVONXUFkMfNU5c9sD+MzacNQMY3slZZBqAupB2iNMMGU+lRlSQaoBNga/fYJ8RmxlahTAC46OgayOwT6pjY19IxnI8Aax1jdWweAbSkjbcaoFNTyXvlDvOl1EZ7iqDGz5NFDcyjExAUQH1h+1rjxljF4BVACoKHbV0hpOc/X8GbEOo6V3kD2HfNS9Lgxylifl0UQB2jCZBNd440Q3umBrjZQ9neQCli7FmLq8t5iGkDgIFPNW1OR3XTODofj3u4cYht03SRMQFj0wPY0nMnxZA/tqRy6PISkBRws4m+eVC/0dy2pMGAqh3Re6/efA6TxFbXzFWyNeX9XClJfDegPwmvFPOndW6KoIblTDqbMWUKZc2VoQDicTNZb3qgsn3SgS3i0+3JJBybk6L15cVHHp2UAGnjQH0xiktaFhSAoWy7M5+Eg7jozh+4rpnkdWNZlCEmPZZjrStAXxLwoABy0UnxNwJO7ZNZRMiSMhbVVqZE2XRCf5iFkCyJb/St1FJ/iEj8rJiTcnFwt3yWi3KsfoW2y4JUqnCmTLPkTQqgBs0sqgXQkbFb2R6qAsgfynaRYmU79bJLWe7yACi0h6RBwADkcSVudX7FIFCCFqSdy8V8xOqHfgvxmdz1jm06LTXKqtb53Y4BbGk2ys7GZ15OVCAnZUw9MCCuDtFD745cNPvlkP9ndzANnZ646T+mo3R77HDSG6pu2iIVpaxUlIg27lWkrHVTS3isaRsBaRGjd0raEm3cEp39+LNPN55imR3/rR+Pw1VxEYWHjj9epISVxh/uFPASImgGsmgbadNBp6As2tK0WvLbaEHE+ykDiD9UjyWHAaQbUrgxELdOc2k4zxe34tKiLc5HDL1NtWhL+SEOpQ4l8r35dtdZeKRr3qaeg3FmkjhvyeWus/FIhQVjmWMsOKVlAJmisuBJnbV5DX7WQw6s6ab+kLjMikdr7wAcDfcrgJySxUKqHwyQzpu2SEUEa443yBvSmk66AggzNqel5nfcmPG8wWWAjMtNgyfF1W3e6VDlFUDa6/YJmndVrhGPGb3ngKJtsjmkRMdaNAjEiDluLkDmSDy2HeaIkdT4g8fIsvp0aDy/kJXNhHq3JLn7DwXvaw0gzZlwM6qW1JZCxCxqAElZIdwBJGUFj2l3zjhJm4LTQ9Qiq2E3NAa9Zq+rAXslL8S7cIgJ21jLIoDP5b22ZSIHSa/JKq4r9Ocdu6EZ/bipei6/TYNGngbdpk0Drn+fZr2Vl0bArbwQkhv5bdo3YCd6nyYOyJ33aeWAg4j7NHRAEjmnrbPK0/N3D0b7D9ukTMD7tDmNrvulO/XgtVMauFGqPcaIV2NdWT/z3+2q7phaeN670EIq4r11VVVFpAZbZzEt/IV4kLlGvD3LWnElnvrS9Jh5/El7Axkr/ahVdcE2VtTro4LdlqghgevjoOdecWQ1KNOoaMBexyk4X3m9nm4YnryWAUz1vM7NNSxLvBpww86119zfsAnglUU2rPO2RMizB9vFVUMj2J5ecaxmK4MrkvjtZHhSyWs7pWLz/Lt/MXcjbn98+3Hez68fP779tu/xe/0xn3309kPA9MPf);lineShape=1;strokeColor=#3333FF;fontFamily=Architects Daughter;fontSource=https%3A%2F%2Ffonts.googleapis.com%2Fcss%3Ffamily%3DArchitects%2BDaughter;" vertex="1" parent="1">
          <mxGeometry x="206.81073825625208" y="261.4755891662028" width="371.6263645702698" height="123.95113681381255" as="geometry" />
        </mxCell>
        <mxCell id="0-lWzW5RpEPmX99tTFJL-21" value="" style="shape=stencil(lVfLbttADPwaXYldcp/nNP2PAHFqoa4dOG6b/H2pCnJNSp4iN1nmaPmYIbmDPLztn153A4e3y/n0ffd7fL7sB/kyMI/H/e48XvRpkMdBHl5O59238+nn8Xn+/fo0WU5PP06/pi+8z7jYKfGE4vAxvwlU898XX2f7w3i8sU9MMRn7SgHY50LFfj/G5QubgBqIHSBTLfcBjalkA9AQutwHdCHpFlCpdgDoVK1LUiiBoGMIFIJBpEydwRGZWjGAnKgHEHWjbE8osiRuO6+dio1aM13rfUBRgHWpappA5XKnbAEtUQSFkEpcDaBXasAlEU8+LY2ALHEjYQ/ooNQsGwDkUmxUXAwNsi8maskHzcClyMSW30qWGAFABWbr0HkR4T1AaRag/EUuycKca6Ur5FLUEC1bm+oBxMDqUvRcqghQKGcPQGmVSKmvTgBckquCb2JoDQCUm+ssAWokdWldB6A4bcbBcYkpgzok7YzuhEwBNFdpfjxMbAWtT5Iv3KQHJFEVpBOQKg6cwMkDbtrtNiJQzP4IQRotvn1r1CgI1WgvPq+IGyo5cS4JJaSguHh8ww00USaXnIKuI2MbkJe+dQUU7NJnAToDk61cUZdAHUqkbNk3rRMgrdNIs4LQMxnwWwFOcjraI8iSjuXqto2yaGpbEMFPRR0ZGTSmutp/GHIvUbYhK1WQQ+y7UgxwvwqreUUCGrFK0ZKiLsvTPXO3xlAAFFrXFzJOR6fVgFAAvievsQgzU7zoNVVox/N9K8CFTYds9Paoy2nTcmuttj3Ugj65+f/fXh/+XTNexsNhvqXc/u+vJfpqvtLI4x8=);lineShape=1;strokeColor=#3333FF;fontFamily=Architects Daughter;fontSource=https%3A%2F%2Ffonts.googleapis.com%2Fcss%3Ffamily%3DArchitects%2BDaughter;" vertex="1" parent="1">
          <mxGeometry x="567.3498906038599" y="375.19967063164154" width="9.171896378269073" height="18.009596486700634" as="geometry" />
        </mxCell>
        <mxCell id="0-lWzW5RpEPmX99tTFJL-22" value="" style="shape=stencil(lVvJct02EPwaXVkYDNaz4/yHqyzHqjiWS5az/H0GUQA/9pBN6fYso0lwMEvPgjt99/3zh2/3dzF8f356/P3+r4ePz5/v9Je7GB++fr5/eni2X3f6/k7ffXp8uv/t6fHH148v//72Yawcv/54/HM84e8XXO+btoGK4Z+Xv0gIWwj//enXF8SXh6+3iLrVsEPYM7oSQNk0IaAlAkhbFwRUIQDdUkRALgQgW2sISOyjw6YFATGfA1rbekWAkDc0E6vuAesRx4CylYaAxgB5C9UB2DekLQYHIGJtusW3bSlusbzpDbKJk1KL54BqupkQUMkbajs4h/8FfQyoW3ZizZ0AypbdGxID5K04KSkDpPmJN4BILK7qPKYbQCCqUaMTa90aMdEqW88IyAwQtl4QEAmgdPeGMv3IMcDsKyKgEF0q1XkNc20MUKZjvAEEcg4GELC4TMVavKvMWyYHV3TrHQHKAHFrDhCI8hVx2pq2RjxfCVOIN4BETDSbySsCApGSAQJoq9KAkk3VOgISA5SpzDcAJqWc5wYWIFK/lJOzuDij3jFAp1NZAKHnkO15CQHKPtpOGs5hGe0xIGy1IaCQLSWL+x0BQpxxMl+9d2TNHkHUO9UtZQQo25KZKLyBR6BkzjgiIBK+lBT9knGDRnTJAKEhILM3xE06AoT4pSST7CyAuUq2JWfTBmARSI1/7XXJ6Eolb9A2Gd4NQNkbqlONRLmGFtRWAzBXqRldpREi+g1m0w0BQviSAcI+PhiDYn5JXZw2BpXZG2Qq8wIEymbULHjvyIxyJWKisWM6ULk9xEVFFqDMQHwMsIODN+SpXceAjPmDEaJOnEB0zNgIUSKqERUj0OA3RKxRkP4Yv2HnEAPqkvGbSNTbAOA1jN8E4sjEMp69lEqegfgYYCx1b3FGVwrRVjG3tZeS0RVGdGV5oQUw18bekGfmuQArJh0DXNjNnboZWVRkATgzFkXOZ2SCpZZin7i3B+MGLIqKzJi5AJEyAQkY4yxys0yxozmki7wP80SLqqwiUKeTW+stqJLnGxuD58eZ1R0TE/T0Fr8KIzKYSeviHcfhcMt7+ShPTUyH9sZvoYUlGoqhTZVapqILtjjBfLaiB7YwEZkzmuq11ofpO07Wl/36yKsrjqlGnhDHyWPX+kqzpIgGYxrFDCZOrn+znrnSiNHANIrLB3yKaQgNaEgThoYwT41JYbxwEG69TDd5tr7heuqm3fpA2aNbL53KR7A4Z6GKZf5+fb2SD6wvk9O/cv+F1mCd/GV5pDN92EfuEaW4vu3t3WJOp/YCVMJCDvM/Ef2nRRyWpTl76TOnOhMPpAY8As80YHGzeRwnyyvQ0QvdzMCaaBnLHCuEXloLEfQMRgXIZgIWN3VGypPlkGNxNQjTCf9czrx4QD4p9FMDfqrFaPp0tzwRE3FsONAygNu7USa6d8huw4zwJ8uhhMZbMgGLgIGWwwT5Y6DOQ2bSe/Op1DySEyR1xUD5w+RKr7OmQImXeLkzninYjgi0BSPoluTiVIEVCS0RhklRbpZTBVaUDEswg1cCxthNRVCQrIAakIAEWpAKGG9Wu+1s7xWWR2oeToEv5I4KzGJlwGI0t1XxfoZ1BAQL0YEW6gSJcZjh5MyacO+Jh7K3LYesSi42g6SStqDidLg/l3MKAeahs/F9shwiH29JRIyreWa4Z/kRlC2oRkaUTOVVQlcvo/15V39oNLdWlHuf8wBny4GqhlmdO1kf95K8oJKKLvuCqioa1AUVVtSbC6qtM9q9ksq7VPwiVfDreSri1/NUx6/nqZT73otUza/nqeDRepZq+vU8lXXne5EqqyslJNqG8+szDVZH6xkHUQxuo/pN959cKYQNHyjSuVFqod+LKUO/cFZQwVWLcPT54DpVeEcQSzkaqeNP2MhVpblmcvvJNL/LqJ+jzUTkk2cj4qbUmMl+CpbSEifUdc493ZRKWYOooX9OvPjcsTSWCk3bxOVtiddWxTU+cqA5sLhqS440CxbXRMtpdjbOSvqgFJnXAyVhapArPQULQtBUzny8TNZoy6IcnJJbWEnQvBHaAxjdnv3BFZ3DWseAPqnsAiTeWunIgwofdomra7EAhZIPX9splXpfT/xK55VxnaWoRc4CHS8zBwO1xBqpgxz1JehNKh2GjBVpfc00j40NxVoLbx+4hK1ekJZVCVqAzllUxHGaxvOq0SBpCKC8IrvWu9DAoOWoV8++obgtRR76K2prUx7LG/bqDUDf0HGGqHG2k1yuPYYs2PyNYDxpmWaJY3alIoCOoigWmxvPtsb8TUMAa+5bBMSZiULnPiwEAglolfavkpu5vhoJam7uo1HfmgPypMaL5llmfXQBOj247IeOOj247NLezqumWZErdc59cnbjlryCl934wBiRI54vu060AVi6bHEf5vF7vJptxHw8UoKeOzJ0A7A5qBLc5KHS6kaJMwO8AbCcyogCDOEZgDljIwpQG+2JzhCVjIXgMWPKvsFP1yc+iVuxMt15FC3NjVvyATZjFhAUDcDEWoMbNM+0tlDFiZU3q4yKeACd6vZDqdxVGhXBgX8+Bm5UBIJi5wmuURGg0gZgGU119GcAiC41VzzvldYqjVlEQQDjS0YUwBkPANGl5spgA8DSvoQNr17pEJ5FZXEANvNiAAi7A8CkVLBvOy4tEHto1Y3jN1qbaC5D6TyKjngjCGDK111nftw2YW/Qg9smrH4wvFBGADsHM0h0M51S6aHM7n4Xa1KMu1bRAdh4mQ9ZvKjU+8EdNeY1xo00d+WMsZlx580B2HDwALgLYbR7ElwTbcjhzQiqTd1dsuk0QR5ychfnWHl+PM8B2Gjt2LHbErtUMISiDsBs7u1XHl+BsB8/71h+evjy5eWK5u3/451M+9PLfU59/y8=);lineShape=1;strokeColor=#3333FF;fontFamily=Architects Daughter;fontSource=https%3A%2F%2Ffonts.googleapis.com%2Fcss%3Ffamily%3DArchitects%2BDaughter;" vertex="1" parent="1">
          <mxGeometry x="402.4185131094039" y="135.43016374850617" width="167.15370698798117" height="236.28819601225" as="geometry" />
        </mxCell>
        <mxCell id="0-lWzW5RpEPmX99tTFJL-23" value="" style="shape=stencil(lVfLctswDPwaXTEkQBLkOU3/IzNxak/dOOO4r78vVA0TE7K2zU2msSIeiwU0yd3r/uFlN3F4vZxPX3c/D4+X/SSfJubD8353PlzsaZL7Se6eTufdl/Pp+/Pj8vvlYbacn76dfsxv+LXgYggUwgzj8Hs5KtTS34PPC+B4eL4CtErCg31UKgIAQlkHgDBp3QbURqENgBT7yW2AUBldSo1y3gaoEqcBkJVUtwGlURtdKplyAAAmGYNWOwEuJUvreINFlUGWrEwcB0BTyqBwvHKpWaLLNsDqqsUDKnApMtXVDQ1Qo65CaBTBBYm4+JAVhBwp5dE+kwJ/Qs/Hm72QAH+Cp1ELMN5IbcxPrVSA/9n7UwuMt/l81kwJ5UdWDqVewtuASjX5G1BrsiUw+hACpnUbe7niGs9B1xGAWSqBoqsyE6MY2opGiZQBYCUvzaKKMEvqbqhd0m7XoXUxueqcAmKIqcvVm2q/C/8GlzT4GzJwyZimPgSY1Rs5SkAgwyriRBG8fzXWWvyHVrB4GgloBWud8f3GUwE1/qi9iV0cea2WYsTrSmFsNZtRAiqcoy9xZkiieUiOgJS7Im9NwTbGIEoJjU37e4zBeFhBlnQ1ciKWSE2++02PgGSbvWvNBAe/Fq/ZQgHQSFdVi1RBG9TQSdDtQyfW1m4kydkz8MfkObGzRzJhXZLF2UdQMNPaHJ19Bpyzie3qFTtFbtur1wnuDm6ts23Mj8DpMa9AbnWEMvHh/fo/APbwvs4/HY7H5Wvg+n+//tvR8ukg938A);lineShape=1;strokeColor=#3333FF;fontFamily=Architects Daughter;fontSource=https%3A%2F%2Ffonts.googleapis.com%2Fcss%3Ffamily%3DArchitects%2BDaughter;" vertex="1" parent="1">
          <mxGeometry x="395.1921860245279" y="135.20533152124665" width="9.458255868842182" height="18.862092061548147" as="geometry" />
        </mxCell>
        <mxCell id="0-lWzW5RpEPmX99tTFJL-24" value="" style="shape=stencil(lVfZbhsxDPwavxKiLkrPafofAeLURt04cNzr78vFQs6Su54igB/stWZ5DcnRLj28H57e9rsY3q+X8/f97+Pz9bBLX3YxHl8P+8vxqt926XGXHl7Ol/23y/nn6/P8++1pOjl9+3H+Nb3hz4zjTKVPqBj+zk8iTb/083U+fzq+Ls5HplLN+U653T+fgj/PjbIAQKaerEOJEgNAp9QsoFHo9wE5kWQDSJFaAQB9X7EAIQGAEilHA8iRUgWASt26lIVCuA+oTGLTWpg6qEOtJMECBGZJIgWb1qpRIYBQZQtoozKbgJa8BVEyZgBo4+8BaIEyoEbPFK1LTYbNbYByyZKvpxHVJoBDGHW6IQoF0EBqotkgeoUd1Bs113EyXrENEGKxgEYd0FXT1C2/1UkB7Osrfi/ysF26vgpCnyQAECrRAyKyUKhWHzUj+uUxhxaFaBjg+KqlziiGvIohUQctpDGIK0SEhdAsVUcmxoA+HFgAGJfaz/uAyVRWWWKKiN8y/l4EHZCF5jeEppXBSpmo5iqNB01fZ6lCek/cdBYETyZtYTuZNKqKxkbxS0ttFuRSWqW148IFvyEmAB7HcdXTGWy5Voe0WARdECCTdJ/WhFz6LEB00K3YysAlXVHBkk9tokE2LUGbVmlwzOiaFcslXcUdiQfx5KsaNOCSSoVqXZrkBFJMlaqdSypYKui4zH7JTTYB+dKtTDcBVMfG2AaoZLOVVpuI3ioK20rEMVK6yiVbabWZkIWwEqICBRDr4rcuqfhGWdJusUODVcqCEHgokVud4YwJFG1KdaUCZq+Ujw5VEG0YfXVL54jmznEncCMcd+z7+MbxbfoQW7oFyLbs3x6GTtxuYX+n0lShqeWFCNZSHMZ96ON8RCzQderPV0TL5P1heHn57BXy/+f1y8d99eV4Os3X3eX//n6rj+a7cXr8Bw==);lineShape=1;strokeColor=#3333FF;fontFamily=Architects Daughter;fontSource=https%3A%2F%2Ffonts.googleapis.com%2Fcss%3Ffamily%3DArchitects%2BDaughter;" vertex="1" parent="1">
          <mxGeometry x="402.7832513986489" y="136.92973151415833" width="15.585457796137105" height="27.452302306570086" as="geometry" />
        </mxCell>
        <mxCell id="0-lWzW5RpEPmX99tTFJL-25" value="" style="shape=stencil(lVrZbt02FPwavxLcl+c0/Y8AcWqjrh047vb3HfaCtDiUxsibrXtGos4yZ9Nd+PTj4cv3+ztvf7y9vvx+//fj17eHu/DLnfePzw/3r49v+OsufL4Ln769vN7/9vry5/PX2//fv3TJ/tcfL3/1O/xzwzmTawd5++/tgjWx/H/h15v40+PzQdyb5Bdxb2y4Fg/GpkUcF7IST2ERj8ZFJd7WuycT3LV4HL8O8SxfNZq8iheT2rV4MnYVb6ZUJe7LIu6caeLwycS4ykep+WRSXuWz8VbJl/X4rpqQlHxd/aY7jr+Wz8a2Vd6bIlwBpyVHw/sKX8gm0P2TPH822a7yuCK8IZu66sfX8Uan8mWcdso3E6W8X/UZ7PDuC/m0nif4obEL+bb6Q4hSHtan88BDhP7rsOaUz6YJ+WY8MUOVsd5MXe0bcEX4s7P8gAiFihcGIBP5eOPUExybOAbJPwBQDMcoGQiAugZBTJKDHOh5ZZVYxpVzQDCOAE26NQCZONcaJ/wUNBVWtSZnkiBGAJjVwRTKDom1lOIIpnNAHswwAWBj9dLTlScgS3Jxhe2QirZ0ZbpLVRuumkpHaiN5nidua+wa0NkZLwLOb96a/cgR5wDPlJGDtPSe7nMcWescEDnp5CRJu2f4Va05yywLGnNrWshVagksbekJzWThS6BptwIK7CCOFCJnhuL1E7ZUWHTqBPPG1VvLB4WU5Sqw5OEs5wDP2aogHkQAgRjJNQoOKUggZvbW0owTWopbxAFQRQCBGNsKqHY4/HmFNHnuAKiqggx8pOpMEPEAnmuOAfIJmav9Ogv6c0DlAKpBpulsTwBNaAmkQpauiHJViEXOQHUmgHNA5tK2Zl16opahIxUZcQWlw1r81CqZDxEc6R2atHSJ7BpNp11EcAsMUFpCQBZ6AvxXWBrhQhVf8zKL1tkqTkAYOekcEDlPA1DFS9fNvdts4s4BlRN7A/MJLUEn1NAC0IThoJNKWgJTKQBeujBA8RIOEOmli1Rrv19mQBAR19C5kOGQJtUT2maHOqrAKwAfqcpKAIBWGFCFtzqLRL1mdtxDNhxti6CphytAqQxQtIGfqUfvetB69Y0BilzxMw8lAFBHAvWlDSDybreTZ0BREVS3oG7Dga8ANClpOrN3wOZ9Uq1br4sr+YOXTgxQ9N3V2higpjHdcFtAOKVW5I+4AQRXdt+025E0C9AEpFXZ03TP2bSkRgjnMaoq1/6ILYKCBlDb1PUgMkT/eQOoPNoPsMeopjJHk7d3PVx5U92YSc5afhqQTxi/KVunwaVHAlfvEH/WwbfRBrJWVg5ut/qkyNEGigE2tU7VKDcCPSEN+rwqaLgCmlPjc4AbCeRQ0HhVJ7bRJR1KJmUHlH2BAF7OrVFYpg1gVSUaTCHDOdldojjmpGX1O1jjqV6fBchVgU8vDdurYSJaCMpB6AhUo5W3eh3OohIv2iC3NSnKW9PM/Ic2yKuBfWVyhTsmtXHIw9UOrZzKo2hHU2SA8tbkeZ5T9YgJLTWr1esufyuxekgJmolldBgHgCLjmHkK3McCChB5E1L0ZiB6fkKpsjOLlgMIUa5mg6HwHKHPc9RMKo1wOUyMnFrsBR6ugxZUVxPcOMBh6qWO1BcKpCUrU1bfuKyWzjPXnwMSN+3gETXE8oGrvlxkddInqDRyzZIq/daO5iQbLTfL/8PIVakVABpX9qGuHn1TB5GdtLQrHA9Zj8lcZtcAF6qJkdt2m6nKARAANNRNutboS46VZkCeqn91YduKRFk69M0O7SyCnFTsu6PkZDcKABWuycp4cJbZG2zr1d7FcoiCbRXztW39NUfbF/K8X9N7ncblGLhZsVjdtmtebhMKd0xgZtUbl9ETDvnQZGm1DTZB5HqHTaOlviqQO3XKIyHK88/l5JT3MtkmjhqwvjpP2r4h0POSyG2P14Qdt28CwE3yCxEaZeCEqu6M3CT1Owj9BCbr/vmMlKfmFvlBkUrg7sLpDBh4iwPuVmufwETtdIka+AOdvp6W8qRPcJjqIT2XOUhuamXKnU4ZNfo5vXHlGOVszjH5aNvacdT5rrInslwzOknN2+DFSeLZCkw7mO5KnL8xU9sRO0r6d3G1Z7NcNFm5T7W8b7Kyz7JjZHUQl2aigZQe5Tj+/MLKeZdjArdyhO24ZrA6P//cp4AfiuOP968Ovz0+Pd0+Wjz+zl8p4tLtC8fw+T8=);lineShape=1;strokeColor=#3333FF;fontFamily=Architects Daughter;fontSource=https%3A%2F%2Ffonts.googleapis.com%2Fcss%3Ffamily%3DArchitects%2BDaughter;" vertex="1" parent="1">
          <mxGeometry x="423.344658455464" y="130.05838238453418" width="135.1928475489845" height="124.84245907453806" as="geometry" />
        </mxCell>
        <mxCell id="0-lWzW5RpEPmX99tTFJL-26" value="" style="shape=stencil(lVdBctswDHyNrhiSIEHynKb/yEyc2lPXzjhO2/w+cFXKJiSt25ui7IoAFgvCAz+8bZ9eN0Nwb+fT8fvm1+75vB34yxDC7rDdnHZnfRr4ceCHl+Np8+10fD88j3+/Pl2Ql6cfx5+XL/weeTmSuAsruI/xTaJY/7z4OuL3u8MtvlD1Hd5XqrxOKEK+JzCTgBNqoFw6QkztE8uEQk76FPAJ3jlyfdLCFEESGlPMHUHrVgSUKVNKHaFECnGdkLTssSNUTwWE5IVCX9daMWH63g2hgpAyyQzv0zo+kjMZTEVYDohiX6KaiIHOzjaSqiJAA8X3fVS0QBnFI0ayTAHmywafWiMuO4FcH39hSqD+PrTjJ0K41xIS7AkOELRE0re1dql3gMBUxeaM3B/U/YZQiEHS2nXOdJ0nB1TTE/7Oq4nAsEqqWzIEwSF5SiYkzQHpsOSchAYSU+hDuhlRK71Uy+wE4B2doNGm4EGvBuudKnAGO4rOipCAarMBXB0VkK+feUfdBCrKTaCbPs1AMqE882YF9fEariEEqmi4TPn9IyHqfdGnkBMMSRxxb7WsZ6L5rgH040JvQVSkzNabSW9BMCElUzFXeWzX3DLBWwI7eEIqVjhtXZR0CjPhmlnX8Kl3jrSqreHNfpSajst4tiLo7nJnT+hHRYCXVMo2ft9GwTJ+2gkaXtuqAMVC8/kVjwaXaDnE4pExc9uzrvgIbKM9H4LJl0E8aoLgTD0jWuym1fKqVwH1+e/9+i5eH67L/Mtuvx9/C9z+3y7/+mr84cCPnw==);lineShape=1;strokeColor=#3333FF;fontFamily=Architects Daughter;fontSource=https%3A%2F%2Ffonts.googleapis.com%2Fcss%3Ffamily%3DArchitects%2BDaughter;" vertex="1" parent="1">
          <mxGeometry x="545.5427041355156" y="243.2027616744963" width="11.033479710584029" height="17.366122451818228" as="geometry" />
        </mxCell>
        <mxCell id="0-lWzW5RpEPmX99tTFJL-27" value="Response" style="shape=stencil(lVrJclw3DPwaXVkgwfXsOP/hKsuxKorkkp3t7wNExTfD5puWfBuN0EMSaIBYeKcfvn/99O3+Lsn3Hy/Pv9///fD5x9c7/eUupYenr/cvDz/s051+vNMPX55f7n97ef7z6fPr398+uaR/+uP5L/+Ff15xY4RWHJXk39dvokgQ+f+rX18Rjw9P14geSl0Q9s2oBFBDjSugBv/zJiCHoStAQ4kEkMLIK0BC6gQgofUF0G2TBNDt0OuWuq1JzmC/p2MBtBFSIYCMK7QSBjl03w7dNERihx5DkxUQQ2QrSOjrCtXYMiggAsCo0W4DTCdZEZAyAfRQ2wpoIZEttYaWrqZWQu9mRFi1VDUMYjgzU1z9ocZQCTXaQeYJKD10toIZDgAldMLWi5kOgJGFaMmU2NczFO5ArsQ1bOQWKjlDzSGmFVCCMkAKBQAaqhJADLJaOqeghN7FtLRyKceQyZbMTGWld5bpg+eAFnJCQCFqLRY1KgIi4ZIRQVdq6JiEPwfkkBQBys6g6NPaJx3PASnIQAC7UIoZbrWDthAZwC6oVUtaQyTUyBaFVmpont+cA8wfYEtKo0auyCVNM9qeAwqGGY3zm3NARmqoTDqeAzTISr40QmErRNxS6iGT6O3cXNWajPBkS84cANSZTJwDGt4PqYTGVqgYjA3AuKQlCKxwXMTngBwkIiCyLencwAHQ0NkKKaSGgELikh5h6wqg7NCyWTqFTu4HY07bAJkEAWNOXYNAitNDzgEtlIYAIYc25ijQm+etZqaxbikeycQ5wO6bNfLFNn3wHJBmJD0AhSaJdsQIW8rUH+yIQO+oNKuMYxLhACTqD6aTsrpojNPLbwHAgaLQ+8GUCOWAAZStUENfLT1mfXBLPgvId3bkI8++yFfi0CYPZh4z1z+Xz+gLgzLb5GXdf6eplVOggTyjqTEgD5BnZYARAHLuI1s8l9/Khkb9zOQF5QuRH+g0jWZtpgzcPWPbFoe4eN3Pmql4iqgaosqCEejIS26IQwbcZ6J0fn9jHdKnZs9vDUyiOk0cdV4QF/HMYiE6uYmzSDjLxKvNMI6FgpRPJCQIpn+NluIyS9ArqxLNyFz7imJk7zK986gvaQq0eVOh0U8wnck02AjGJqVWlS27op0fQQLHN8wEt6HQSGB6R3EWhwUT7kOzN8QhCZOZu94Qh3YPv2YFCZze0ExdvUnpFSV4JWdaagvmCIXWnIJxxghMSQBFM8+6zEzQN3tj7wnFWVG0d7RoI2WrTCutDQRLtPIGIzfnY4XE9utpmvl9e4+06bppRuhVtuld3tCMojhL7n9avHcQZ3XrVhjzOJP2OMMott18QjsH270qs4P/vltbKGe2nEBoA3fLOCLv3GwVFW3ebtlSpIrccrE4E+/3ZXqRRrEtj+TiW5YaeVW0Xdu8HbQn2dxb9yQ+0uxtLxIibUR6EYI8Y0MhL3KQ9azBZvItwX6E7afs5mLJrReBqE+WyHuRifKsJe9FLPQ3eMLa0F7Ki9iOXddMo4j3PtaIWWgYiQOLXn4RerzfigsSdzwSwMyPhmRXH0QeobMp7+YAIdJc8hywdQaN46zh6h0pGKVmWih7BAIf47Op1HEQZLRioybv2wGg0X6RbpmgAViy5r1HyBo6DRTe3ewIYK1E759GBLC4rltoMfKybMB7wBkBmQEsq2sIYNFO29ahFZqLaZ/eftUOZeVE3orKxKdf3u2H0kzpjeDzBDhDpiHMJxZQsxRqaZ+JwJYqH0BYUIVefKPztdymfx2ATtvSeZwMUZhP+2wKpl/xrekXjAcMQFOuhP5gLkW3pFgmm0uxBpvPCFdLm0uxatOnkAkBrAPic86fGsiVbRBkTsv8wWe1BQHsfijbzNy8nDlQjZsdGn1/4RNtsEPnzcKMhrt4+Tmg4IgjH2ncOWDzB/NB1guuA9NOcymm1hZxMGoewhpMTTEtL5ytrcyW0gGosyF+DqhzAweg07qitVkyHbmPUGq0jslq5ZWLv4OBVyqJUsNf2qyWrkot7W95AJBpV95fC61aurDrHJCQfLXThpm/eIK2qdBg3Cveoi3PaHsO2IZZ/hyIRI2xVVWdPwkZus1qCn89l7cueqdRw1/PwXM7XvD7+zwYN/GLfQycytsmWa00tiBgACU5nwMGAlj6M8b2ApB3xhzQEMDqZwfAlip9eXb1LPIKQeeQJwjem/RNgSU6HeQ7oCCAVRAOgFknH16OgS/DLi9GbwK2Fejz0J9/gfoOhH24PHn98vD4+Ppi9vr/+ETWvnp9Xqsf/wM=);lineShape=1;strokeColor=#33FF33;fontFamily=Architects Daughter;fontSource=https%3A%2F%2Ffonts.googleapis.com%2Fcss%3Ffamily%3DArchitects%2BDaughter;" vertex="1" parent="1">
          <mxGeometry x="212.3784953518516" y="248.29811153479784" width="343.2859846295986" height="27.794546054352914" as="geometry" />
        </mxCell>
        <mxCell id="0-lWzW5RpEPmX99tTFJL-28" value="" style="shape=stencil(lVdJcttADHwNr6gZzIqz4/zDVZYjVRTJJctZfh8oyjACKHbKN1qeJrF0NzBTenjbPr1uJg5v59Px6+bH7vm8ndKniXl32G5Ou7M+TelxSg8vx9Pmy+n4fni+/v36dDl5efp2/H55w88rTjpJvKA4/Lr+0qjKnx8+X8/vd4eb810odnM+NmoBAJhKMwDOlAGgZWrJAFIgaeuAWqjaL6RGJa4DSvE550RS1wG5jIhngJD0dUAqFOwX9JsJ5MAakk26BgoAEPsCkIlBWaOGJLbRgSpIWkNqjhmaA6BGjtSyAfQwOnO/D5WKDannQZY1ahTbh94ogU63Rpw9QBD5hIqltxI+ID1EYks+CdQK1EO0jROmxhAQbEiiCsEhRbaAOiS1lnQqFtApAWq0SuIAQhnoQRvnXSMov1EjIqXkP9FBXWsfvnUDCAig7LPcEGx96jPRCkIKJJMqsrgyJerIybI3JonUATc0h1g9XZGTaZU8oFMGSatJOBdQBRXEjeSTVgBjMqXqARXRtVNf5IAAakPNUSOMMqwpSBw1GHJJNcrWmFSjEU3FuCBfHexayyE4UbdRhjXr6y4kHd3IXMvCmAR7JS+sT+Cg/jCgCLGzvk4BDepEKfs+oJmV8gjgVnHAybhScBNFYEi6Hjk37gV+YebyfJ7HMnE/Im+U2vkA3j/77rw46HYD3h+D58VlfwI11YxdTYvWFOiTFyXKbUyk+11rPoesVQA+mXUAuhWxwimtq0m0bdYltKBpkqlaquqaW0BIKoZgXUxXur/705rtVZt05OHN94nUBvXnkIiRiekksM49z+C1q4Cz1QBtWBYjPUBDUs91PMIrg0q9sn8/qM/FcX386Nqghut2w4jj73508vCO++dlEGbmHFw9ZR71swrGtrsi5IX0Vfk4oGpFUKmiAn3wLvn/8/rw7+L6stvvr/fe2//7i67+dL0kp8ff);lineShape=1;strokeColor=#33FF33;fontFamily=Architects Daughter;fontSource=https%3A%2F%2Ffonts.googleapis.com%2Fcss%3Ffamily%3DArchitects%2BDaughter;" vertex="1" parent="1">
          <mxGeometry x="203.7471714737983" y="237.59812508133484" width="16.221432819828937" height="22.46380549332493" as="geometry" />
        </mxCell>
        <mxCell id="0-lWzW5RpEPmX99tTFJL-34" value="&lt;p style=&quot;line-height: 40%;&quot;&gt;&lt;font style=&quot;font-size: 11px;&quot;&gt;1. &lt;b&gt;User query:&lt;/b&gt; Who is coming to office tomorrow?&lt;/font&gt;&lt;/p&gt;" style="text;strokeColor=#666666;fillColor=#f5f5f5;html=1;align=left;verticalAlign=middle;whiteSpace=wrap;rounded=0;;fontSize=20;fontFamily=Architects Daughter;fontSource=https%3A%2F%2Ffonts.googleapis.com%2Fcss%3Ffamily%3DArchitects%2BDaughter;fontColor=#333333;" vertex="1" parent="1">
          <mxGeometry x="250" y="280" width="100" height="40" as="geometry" />
        </mxCell>
        <mxCell id="0-lWzW5RpEPmX99tTFJL-35" value="&lt;p style=&quot;line-height: 40%;&quot;&gt;&lt;font style=&quot;font-size: 11px;&quot;&gt;3. &lt;b&gt;Data from Plugin + User Query:&lt;/b&gt; Desk reservation details and question&quot; who is coming to office tomorrow?&quot;&lt;/font&gt;&lt;/p&gt;" style="text;strokeColor=#666666;fillColor=#f5f5f5;html=1;align=left;verticalAlign=middle;whiteSpace=wrap;rounded=0;;fontSize=20;fontFamily=Architects Daughter;fontSource=https%3A%2F%2Ffonts.googleapis.com%2Fcss%3Ffamily%3DArchitects%2BDaughter;fontColor=#333333;" vertex="1" parent="1">
          <mxGeometry x="450" y="170" width="220" height="37.48" as="geometry" />
        </mxCell>
        <mxCell id="0-lWzW5RpEPmX99tTFJL-36" value="&lt;p style=&quot;line-height: 40%;&quot;&gt;&lt;font style=&quot;font-size: 11px;&quot;&gt;2. &lt;b&gt;Call Plugin to get data:&lt;/b&gt; Get desk reservation details&lt;/font&gt;&lt;/p&gt;" style="text;strokeColor=#666666;fillColor=#f5f5f5;html=1;align=left;verticalAlign=middle;whiteSpace=wrap;rounded=0;;fontSize=20;fontFamily=Architects Daughter;fontSource=https%3A%2F%2Ffonts.googleapis.com%2Fcss%3Ffamily%3DArchitects%2BDaughter;fontColor=#333333;" vertex="1" parent="1">
          <mxGeometry x="450" y="318.45" width="155.9" height="30" as="geometry" />
        </mxCell>
        <mxCell id="0-lWzW5RpEPmX99tTFJL-43" value="&lt;b&gt;User&lt;/b&gt;" style="shape=umlActor;verticalLabelPosition=bottom;verticalAlign=top;html=1;outlineConnect=0;fontFamily=Architects Daughter;fontSource=https%3A%2F%2Ffonts.googleapis.com%2Fcss%3Ffamily%3DArchitects%2BDaughter;sketch=1;curveFitting=1;jiggle=2;fillColor=#fa6800;strokeColor=#C73500;fontColor=#000000;" vertex="1" parent="1">
          <mxGeometry x="160" y="223.57" width="30" height="60" as="geometry" />
        </mxCell>
      </root>
    </mxGraphModel>
  </diagram>
</mxfile>
